<?xml version="1.0" standalone="no"?>
<!DOCTYPE svg PUBLIC "-//W3C//DTD SVG 20010904//EN"
 "http://www.w3.org/TR/2001/REC-SVG-20010904/DTD/svg10.dtd">
<svg version="1.0" xmlns="http://www.w3.org/2000/svg"
 width="3840.000000pt" height="2160.000000pt" viewBox="0 0 3840.000000 2160.000000"
 preserveAspectRatio="xMidYMid meet">

<g transform="translate(0.000000,2160.000000) scale(0.100000,-0.100000)"
fill="#000000" stroke="none">
<path d="M0 13285 c0 -7227 2 -8315 14 -8315 20 0 30 18 18 33 -12 14 -12 357
0 357 4 0 8 -18 8 -40 0 -30 4 -40 16 -40 17 0 17 12 -1 130 -3 19 -2 28 2 20
5 -8 20 -33 34 -55 23 -36 43 -95 32 -95 -3 0 -13 10 -24 23 -18 22 -18 20
-19 -120 0 -98 -4 -143 -11 -143 -8 0 -10 25 -7 77 3 43 3 60 0 38 l-6 -40 -6
45 c-5 33 -7 22 -6 -42 1 -48 4 -88 9 -88 4 0 7 -16 7 -35 0 -30 -4 -35 -22
-35 -21 -1 -21 -2 -5 -11 12 -7 16 -17 12 -30 -5 -15 -1 -22 14 -26 11 -3 19
-9 16 -13 -8 -13 6 -40 21 -40 8 0 14 -7 14 -15 0 -8 6 -15 13 -15 8 0 7 -3
-2 -9 -12 -8 -10 -12 12 -22 28 -13 36 -29 15 -29 -7 0 0 -12 16 -27 31 -26
76 -105 76 -131 0 -10 8 -13 23 -10 22 4 24 2 20 -28 -3 -26 1 -34 17 -39 14
-4 20 -15 20 -36 0 -31 17 -40 26 -14 12 30 22 14 17 -25 -5 -33 -3 -40 11
-40 9 0 16 -7 16 -15 0 -8 4 -15 10 -15 5 0 9 -6 7 -12 -1 -8 8 -13 21 -12 20
1 22 -3 17 -26 -4 -20 -2 -29 11 -34 11 -4 14 -13 11 -27 -4 -15 0 -23 14 -26
12 -3 19 -14 19 -29 0 -18 6 -24 23 -24 18 0 19 -2 7 -10 -13 -8 -13 -10 2
-10 11 0 15 -5 12 -14 -3 -8 -1 -17 5 -21 6 -3 11 -15 11 -25 0 -12 8 -20 22
-22 16 -2 23 -10 24 -27 1 -14 9 -30 18 -36 9 -7 16 -20 16 -29 0 -14 11 -20
32 -17 4 0 5 -5 2 -13 -3 -8 -1 -17 5 -20 6 -4 8 -13 4 -21 -3 -9 1 -15 10
-15 8 0 18 6 20 13 3 6 6 -7 6 -30 1 -36 4 -43 21 -43 11 0 20 -4 20 -9 0 -25
47 -111 60 -111 8 0 26 -9 40 -20 19 -15 21 -20 8 -20 -9 0 -18 6 -21 13 -4 9
-7 9 -18 0 -8 -8 -9 -13 -2 -13 15 0 53 -66 53 -91 0 -23 13 -25 30 -4 7 8 22
14 34 14 20 -2 20 -2 -2 -6 -30 -6 -31 -62 -2 -81 11 -7 20 -21 20 -31 0 -10
7 -21 15 -25 8 -3 20 -16 26 -28 14 -33 34 -65 50 -85 9 -10 21 -31 27 -47 9
-21 18 -27 32 -23 22 6 26 -3 9 -20 -7 -7 -6 -15 5 -26 9 -9 16 -23 16 -31 0
-9 5 -16 10 -16 6 0 10 5 10 10 0 6 7 10 15 10 8 0 15 5 15 11 0 6 7 4 15 -5
17 -16 21 -76 5 -76 -5 0 -10 16 -10 35 0 33 -2 35 -20 25 -26 -14 -26 -46 0
-60 11 -6 20 -17 20 -25 0 -8 6 -15 13 -15 8 0 7 -4 -3 -10 -13 -8 -12 -10 3
-10 9 0 17 6 18 13 0 6 4 2 9 -11 5 -12 7 -28 4 -36 -3 -8 3 -19 15 -25 11 -6
21 -21 23 -33 2 -15 11 -24 26 -26 20 -3 23 -8 17 -29 -4 -19 -1 -26 14 -30
12 -3 19 -9 16 -13 -9 -15 7 -41 22 -35 12 4 14 -1 11 -19 -3 -15 0 -27 8 -30
7 -3 21 -20 30 -38 9 -18 25 -39 35 -46 11 -7 19 -19 19 -26 0 -7 10 -23 22
-36 14 -15 21 -34 19 -48 -2 -21 1 -24 18 -19 17 4 21 1 21 -18 0 -34 10 -55
26 -55 8 0 14 -10 14 -25 0 -18 5 -25 19 -25 14 0 21 -8 23 -27 2 -21 8 -27
22 -25 10 2 15 -1 12 -7 -13 -21 6 -60 37 -75 l32 -16 -35 -1 -35 -1 30 -7
c17 -3 30 -12 30 -19 0 -7 7 -17 15 -22 12 -8 12 -10 -5 -10 -18 -1 -18 -2 3
-10 12 -5 27 -21 32 -35 7 -17 14 -23 26 -18 14 5 15 3 4 -17 -10 -18 -9 -24
1 -31 8 -5 19 -7 26 -4 7 2 15 0 18 -5 4 -6 1 -10 -4 -10 -23 0 -11 -41 15
-50 19 -8 24 -15 19 -29 -4 -14 0 -23 15 -31 11 -6 20 -19 20 -30 0 -10 9 -22
20 -25 13 -4 20 -15 20 -31 0 -25 24 -34 33 -11 3 6 3 -2 0 -19 -3 -19 0 -36
9 -45 26 -28 68 -88 68 -98 0 -5 10 -17 21 -25 13 -9 19 -21 16 -30 -4 -10 -1
-16 9 -16 10 0 14 -6 11 -14 -3 -8 3 -22 13 -31 10 -9 21 -29 25 -43 7 -25 8
-26 15 -7 l9 20 1 -20 c1 -20 1 -20 15 -1 13 17 15 17 15 4 0 -9 -4 -27 -9
-41 -7 -18 -5 -26 10 -35 10 -7 19 -22 19 -33 0 -19 3 -18 29 10 16 17 34 31
40 31 19 0 12 -30 -13 -54 l-25 -22 24 -18 c15 -12 21 -24 17 -38 -3 -13 1
-24 12 -30 9 -5 16 -18 16 -28 0 -11 5 -20 10 -20 6 0 10 11 10 25 0 14 5 25
10 25 6 0 10 -16 10 -35 0 -19 -4 -35 -10 -35 -5 0 -2 -9 7 -20 11 -12 19 -16
24 -9 4 7 19 -2 40 -22 20 -20 29 -34 21 -37 -21 -7 -14 -66 10 -86 14 -13 23
-15 26 -8 6 20 64 -46 62 -70 -5 -54 1 -74 22 -83 13 -6 26 -25 32 -49 12 -41
56 -83 56 -53 0 9 -8 18 -17 20 -10 3 -3 5 15 6 27 1 32 -3 32 -22 0 -12 -9
-28 -21 -35 -20 -13 -20 -14 -2 -27 14 -10 21 -11 32 -2 11 10 12 6 7 -19 -5
-24 -1 -36 19 -60 14 -16 25 -36 25 -45 0 -8 9 -25 20 -37 11 -12 20 -26 20
-33 0 -6 11 -20 25 -31 14 -11 25 -26 25 -34 0 -8 7 -17 15 -20 8 -4 15 -14
15 -24 0 -21 24 -43 35 -32 4 4 6 -9 3 -29 -3 -33 -2 -35 22 -31 21 5 23 3 12
-10 -10 -13 -8 -18 13 -32 25 -16 25 -16 31 14 8 35 44 44 44 10 0 -13 -7 -20
-19 -20 -12 0 -20 -9 -24 -27 -6 -34 -1 -43 24 -43 21 0 26 -24 8 -36 -8 -4
-3 -12 14 -20 18 -10 24 -19 20 -34 -6 -22 12 -28 21 -7 3 6 5 1 5 -13 -2 -43
1 -50 16 -50 9 0 15 -10 15 -26 0 -18 6 -28 21 -31 17 -5 20 -12 17 -39 -2
-19 -2 -34 2 -34 10 0 27 15 34 30 3 8 4 5 2 -7 -4 -23 -3 -23 120 -23 l124 0
0 46 c0 46 0 46 22 32 12 -8 24 -21 26 -29 3 -8 1 -11 -3 -7 -10 10 -35 -10
-35 -28 0 -8 9 -14 20 -14 11 0 20 5 20 10 0 7 6 7 19 0 14 -7 5480 -10 17455
-10 l17436 0 0 10800 0 10800 -19200 0 -19200 0 0 -8315z m19610 160 c237 -84
342 -440 209 -710 -17 -36 -37 -69 -43 -74 -8 -7 -39 1 -94 23 -96 39 -103 44
-79 57 25 15 44 57 57 129 36 198 -97 371 -221 287 -62 -42 -99 -130 -101
-242 -1 -57 -3 -65 -17 -59 -9 4 -50 19 -91 34 l-75 26 -3 69 c-9 206 105 406
263 463 44 16 146 14 195 -3z m-922 -74 c43 -22 112 -93 137 -141 60 -116 82
-330 34 -330 -6 0 -33 -11 -61 -25 -27 -14 -51 -25 -52 -25 -2 0 -6 30 -9 67
-13 131 -89 231 -156 204 -42 -18 -73 -81 -79 -162 -6 -83 10 -149 49 -207 17
-25 29 -45 27 -46 -2 -1 -22 -16 -45 -33 l-41 -33 -28 33 c-37 44 -81 139 -95
206 -7 32 -9 100 -7 161 4 84 11 118 33 172 29 73 87 141 138 163 45 20 112
18 155 -4z m500 -527 c42 -14 120 -50 172 -79 53 -30 151 -75 218 -100 189
-69 251 -108 288 -177 33 -63 8 -160 -62 -238 -54 -59 -111 -96 -234 -150 -59
-26 -146 -70 -193 -99 -180 -109 -287 -140 -417 -121 -91 13 -161 50 -260 136
-41 36 -111 90 -156 120 -129 85 -193 171 -194 259 0 59 28 96 132 173 51 38
134 104 183 147 139 119 220 154 358 155 69 0 105 -6 165 -26z m721 -691 c24
-92 120 -377 175 -523 89 -234 191 -465 314 -715 153 -310 194 -403 251 -570
40 -119 101 -345 101 -376 0 -12 19 -18 81 -28 45 -7 82 -11 83 -9 10 12 37
138 47 212 41 315 -112 714 -383 1003 -56 59 -72 93 -45 93 17 0 100 -86 181
-188 166 -211 293 -471 341 -702 29 -140 29 -375 0 -452 -5 -11 20 -28 96 -67
270 -137 372 -254 352 -403 -5 -45 -8 -48 -34 -48 -29 0 -29 1 -29 57 0 107
-75 186 -268 282 -134 67 -241 102 -333 108 -85 6 -136 -6 -187 -44 -45 -34
-64 -66 -83 -142 -16 -63 -19 -67 -64 -90 -102 -53 -182 -152 -231 -285 -43
-118 -64 -261 -84 -556 -11 -166 -22 -230 -71 -409 l-32 -113 -71 -46 c-289
-187 -622 -284 -924 -269 -147 8 -259 31 -391 80 -97 37 -250 120 -264 143 -4
7 -50 70 -103 140 -52 69 -94 127 -92 129 2 1 30 7 63 14 116 22 175 89 175
198 -1 113 -70 239 -218 394 -112 117 -234 216 -412 331 -240 155 -358 307
-405 522 -14 62 -16 108 -12 220 7 213 62 401 198 681 79 164 223 405 227 382
2 -10 -48 -125 -112 -255 -127 -261 -176 -394 -202 -551 -20 -121 -15 -300 10
-396 16 -62 113 -265 126 -265 4 0 10 44 13 98 11 194 75 471 155 682 22 58
103 242 180 410 264 577 365 874 414 1213 l13 88 71 -49 c39 -27 106 -79 150
-116 142 -122 264 -162 422 -139 97 15 158 40 297 123 61 36 149 81 196 101
119 49 175 84 234 144 27 28 53 49 56 46 4 -3 16 -43 28 -88z m-2019 -566 c0
-2 -10 -12 -22 -23 l-23 -19 19 23 c18 21 26 27 26 19z m-160 -201 c0 -2 -8
-10 -17 -17 -16 -13 -17 -12 -4 4 13 16 21 21 21 13z m-60 -80 c0 -2 -8 -10
-17 -17 -16 -13 -17 -12 -4 4 13 16 21 21 21 13z m-693 -1498 c-3 -8 -6 -5 -6
6 -1 11 2 17 5 13 3 -3 4 -12 1 -19z m-5 -360 c-8 -8 -9 -4 -5 13 4 13 8 18
11 10 2 -7 -1 -18 -6 -23z m3588 -22 c0 -46 36 -161 67 -215 41 -70 99 -127
156 -151 137 -59 378 18 548 177 l49 46 102 -5 c119 -6 182 -30 238 -94 46
-53 64 -100 110 -280 48 -189 69 -236 156 -340 121 -146 174 -263 152 -341
-20 -76 -91 -128 -347 -258 -319 -161 -382 -204 -576 -400 -204 -206 -316
-280 -492 -326 -205 -53 -389 -8 -507 123 -163 179 -170 336 -36 798 69 240
89 334 100 461 6 68 15 183 21 254 25 304 85 474 196 558 49 36 63 35 63 -7z
m-3186 -9 c41 -19 82 -51 135 -105 70 -72 89 -101 248 -392 175 -321 216 -383
430 -652 122 -154 203 -278 242 -370 23 -55 26 -76 25 -168 0 -83 -5 -116 -22
-160 -64 -163 -212 -254 -433 -267 -181 -11 -375 37 -619 152 -186 87 -336
125 -610 155 -339 36 -445 72 -491 167 -31 63 -23 190 20 327 36 116 40 201
15 354 -9 53 -16 138 -17 187 -1 84 1 95 29 145 43 76 102 118 241 169 201 74
225 92 355 266 83 110 161 188 211 211 52 23 170 14 241 -19z m-484 -70 c0 -2
-10 -12 -22 -23 l-23 -19 19 23 c18 21 26 27 26 19z m-60 -81 c0 -2 -8 -10
-17 -17 -16 -13 -17 -12 -4 4 13 16 21 21 21 13z m-129 -136 c-13 -11 -28 -20
-35 -20 -6 0 3 9 19 19 39 25 46 25 16 1z m-361 -163 c0 -2 -17 -19 -37 -38
l-38 -34 34 38 c33 34 41 42 41 34z m-70 -81 c0 -2 -8 -10 -17 -17 -16 -13
-17 -12 -4 4 13 16 21 21 21 13z m-73 -178 c-3 -7 -5 -2 -5 12 0 14 2 19 5 13
2 -7 2 -19 0 -25z m0 -150 c-3 -8 -6 -5 -6 6 -1 11 2 17 5 13 3 -3 4 -12 1
-19z m20 -150 c-3 -8 -6 -5 -6 6 -1 11 2 17 5 13 3 -3 4 -12 1 -19z m-60 -560
c-2 -24 -4 -7 -4 37 0 44 2 63 4 43 2 -21 2 -57 0 -80z m4014 -585 c13 -16 12
-17 -3 -4 -10 7 -18 15 -18 17 0 8 8 3 21 -13z m-20132 -1270 c1 -7 -3 -13 -7
-13 -5 0 -9 15 -9 33 -1 26 1 28 7 12 5 -11 9 -26 9 -32z m41 -33 c0 -5 -6
-10 -14 -10 -8 0 -17 -8 -19 -17 -4 -14 -5 -13 -6 4 -1 19 10 30 32 32 4 1 7
-3 7 -9z m30 -45 c0 -8 -7 -15 -15 -15 -8 0 -15 7 -15 15 0 8 7 15 15 15 8 0
15 -7 15 -15z m-30 -35 c0 -6 -14 -10 -31 -10 -16 0 -28 3 -25 8 7 11 56 13
56 2z m80 -48 c0 -16 -27 -34 -35 -22 -3 5 1 10 9 10 9 0 16 5 16 10 0 6 -7
10 -15 10 -9 0 -12 6 -9 15 5 12 8 12 20 0 8 -7 14 -18 14 -23z m-60 24 c0 -3
-4 -8 -10 -11 -5 -3 -10 -1 -10 4 0 6 5 11 10 11 6 0 10 -2 10 -4z m14 -101
c-4 -8 -10 -15 -15 -15 -5 0 -9 7 -9 15 0 8 7 15 15 15 9 0 12 -6 9 -15z m117
-47 c28 -35 26 -37 -32 -29 -7 1 1 51 8 51 3 0 13 -10 24 -22z m-81 -18 c0 -5
-4 -10 -10 -10 -5 0 -10 5 -10 10 0 6 5 10 10 10 6 0 10 -4 10 -10z m115 -39
c-3 -6 3 -14 12 -20 16 -9 14 -10 -9 -11 -21 0 -28 5 -28 20 0 11 7 20 16 20
8 0 13 -4 9 -9z m49 -82 c-8 -14 -24 -10 -24 6 0 9 6 12 15 9 8 -4 12 -10 9
-15z m42 -40 c3 -6 1 -16 -5 -22 -9 -9 -14 -8 -21 3 -5 8 -10 18 -10 23 0 11
28 8 36 -4z m-107 -8 c7 -5 9 -11 5 -14 -5 -3 -15 1 -22 9 -14 16 -5 18 17 5z
m-202 -7 c-3 -3 -12 -4 -19 -1 -8 3 -5 6 6 6 11 1 17 -2 13 -5z m33 -9 c0 -8
-2 -15 -4 -15 -2 0 -6 7 -10 15 -3 8 -1 15 4 15 6 0 10 -7 10 -15z m305 -34
c3 -6 -3 -15 -14 -20 -16 -9 -18 -8 -14 9 6 21 18 26 28 11z m-345 -21 c0 -5
-7 -10 -16 -10 -8 0 -12 5 -9 10 3 6 10 10 16 10 5 0 9 -4 9 -10z m280 0 c0
-5 -5 -10 -11 -10 -5 0 -7 5 -4 10 3 6 8 10 11 10 2 0 4 -4 4 -10z m-180 -26
c0 -8 -4 -12 -10 -9 -5 3 -10 10 -10 16 0 5 5 9 10 9 6 0 10 -7 10 -16z m290
-25 c0 -12 8 -28 17 -35 10 -7 15 -16 11 -20 -9 -9 -58 45 -58 64 0 6 7 12 15
12 9 0 15 -9 15 -21z m30 -98 c0 -6 -4 -13 -10 -16 -5 -3 -10 1 -10 9 0 9 5
16 10 16 6 0 10 -4 10 -9z m50 -37 c0 -8 -4 -12 -10 -9 -5 3 -10 10 -10 16 0
5 5 9 10 9 6 0 10 -7 10 -16z m-316 -66 c-4 -6 5 -20 19 -32 14 -11 29 -32 32
-46 7 -23 7 -23 -9 -7 -10 9 -21 17 -26 17 -5 0 -14 16 -21 35 -7 19 -17 35
-21 35 -4 0 -8 12 -8 27 l0 26 20 -23 c11 -12 17 -27 14 -32z m-34 -38 c0 -33
-3 -40 -20 -40 -17 0 -20 7 -20 40 0 33 3 40 20 40 17 0 20 -7 20 -40z m390
36 c0 -3 -4 -8 -10 -11 -5 -3 -10 -1 -10 4 0 6 5 11 10 11 6 0 10 -2 10 -4z
m17 -38 c-3 -8 -6 -5 -6 6 -1 11 2 17 5 13 3 -3 4 -12 1 -19z m-57 -28 c0 -5
-5 -10 -11 -10 -5 0 -7 5 -4 10 3 6 8 10 11 10 2 0 4 -4 4 -10z m57 -32 c-3
-8 -6 -5 -6 6 -1 11 2 17 5 13 3 -3 4 -12 1 -19z m59 -6 c18 -12 24 -52 8 -52
-8 0 -11 6 -8 15 4 8 -1 17 -10 21 -9 3 -16 10 -16 15 0 11 11 11 26 1z m-335
-50 c-13 -4 -51 30 -44 41 3 4 16 -2 30 -15 13 -12 20 -24 14 -26z m-91 18 c0
-13 -7 -20 -20 -20 -13 0 -20 7 -20 20 0 13 7 20 20 20 13 0 20 -7 20 -20z
m467 -42 c-3 -8 -6 -5 -6 6 -1 11 2 17 5 13 3 -3 4 -12 1 -19z m-363 6 c23 -9
20 -24 -4 -24 -11 0 -20 7 -20 15 0 17 2 18 24 9z m-49 -54 c3 -5 1 -10 -4
-10 -6 0 -11 5 -11 10 0 6 2 10 4 10 3 0 8 -4 11 -10z m100 -17 c24 -29 24
-43 -1 -43 -8 0 -14 10 -14 25 0 14 -4 25 -10 25 -5 0 -10 5 -10 10 0 16 10
12 35 -17z m349 21 c20 -8 21 -28 2 -43 -10 -8 -16 -9 -21 -1 -3 5 1 10 9 10
9 0 16 5 16 10 0 6 -7 10 -15 10 -8 0 -15 5 -15 10 0 12 3 12 24 4z m42 -81
c-10 -10 -19 5 -10 18 6 11 8 11 12 0 2 -7 1 -15 -2 -18z m-342 -8 c10 -7 15
-18 12 -24 -4 -5 -2 -12 4 -16 5 -3 10 -15 10 -26 0 -10 6 -19 14 -19 15 0 32
-37 22 -47 -8 -8 -36 17 -36 32 0 7 -7 15 -15 19 -9 3 -15 19 -15 41 0 28 -4
35 -20 35 -11 0 -20 5 -20 10 0 14 22 12 44 -5z m273 -1 c-3 -3 -12 -4 -19 -1
-8 3 -5 6 6 6 11 1 17 -2 13 -5z m-527 -14 c0 -5 -2 -10 -4 -10 -3 0 -8 5 -11
10 -3 6 -1 10 4 10 6 0 11 -4 11 -10z m-20 -26 c0 -8 -4 -12 -10 -9 -5 3 -10
10 -10 16 0 5 5 9 10 9 6 0 10 -7 10 -16z m676 -38 c11 -8 15 -18 10 -23 -5
-4 -11 -2 -13 5 -3 6 -11 12 -19 12 -8 0 -14 5 -14 10 0 14 13 12 36 -4z
m-406 -34 c0 -15 5 -33 12 -40 9 -9 5 -12 -20 -12 -31 0 -32 2 -32 40 0 33 3
40 20 40 15 0 20 -7 20 -28z m132 -4 c-9 -9 -15 -9 -24 0 -9 9 -7 12 12 12 19
0 21 -3 12 -12z m-20 -70 c-2 -11 1 -18 9 -18 8 0 20 -9 27 -20 19 -31 -5 -25
-39 9 -34 34 -42 79 -10 60 11 -7 16 -19 13 -31z m48 32 c0 -5 -5 -10 -11 -10
-5 0 -7 5 -4 10 3 6 8 10 11 10 2 0 4 -4 4 -10z m310 -14 c0 -3 -4 -8 -10 -11
-5 -3 -10 -1 -10 4 0 6 5 11 10 11 6 0 10 -2 10 -4z m-302 -41 c-3 -3 -9 2
-12 12 -6 14 -5 15 5 6 7 -7 10 -15 7 -18z m52 5 c0 -5 -4 -10 -10 -10 -5 0
-10 5 -10 10 0 6 5 10 10 10 6 0 10 -4 10 -10z m193 -30 c3 -11 1 -23 -4 -26
-5 -3 -9 6 -9 20 0 31 6 34 13 6z m102 -10 c8 -13 -5 -13 -25 0 -13 8 -13 10
2 10 9 0 20 -4 23 -10z m-595 -4 c0 -3 -4 -8 -10 -11 -5 -3 -10 -1 -10 4 0 6
5 11 10 11 6 0 10 -2 10 -4z m260 -38 c0 -6 9 -19 21 -29 11 -10 18 -22 15
-27 -3 -6 1 -15 9 -22 16 -13 9 -40 -10 -40 -21 0 -36 25 -23 38 9 9 6 17 -10
35 -22 23 -31 74 -12 62 6 -3 10 -11 10 -17z m370 -19 c11 -19 10 -20 -9 -9
-12 6 -21 15 -21 20 0 18 19 11 30 -11z m-70 -9 c0 -5 -5 -10 -11 -10 -5 0 -7
5 -4 10 3 6 8 10 11 10 2 0 4 -4 4 -10z m110 -51 c0 -6 -4 -7 -10 -4 -5 3 -10
11 -10 16 0 6 5 7 10 4 6 -3 10 -11 10 -16z m-303 -96 c6 -12 8 -23 2 -23 -5
0 -9 4 -9 9 0 5 -9 11 -20 14 -14 3 -20 14 -20 32 0 25 1 26 17 9 10 -9 23
-28 30 -41z m40 -5 c-2 -13 -4 -3 -4 22 0 25 2 35 4 23 2 -13 2 -33 0 -45z
m50 0 c-2 -13 -4 -3 -4 22 0 25 2 35 4 23 2 -13 2 -33 0 -45z m243 52 c0 -5
-2 -10 -4 -10 -3 0 -8 5 -11 10 -3 6 -1 10 4 10 6 0 11 -4 11 -10z m-18 -80
c-14 -15 -22 -18 -27 -10 -4 6 -5 12 -4 13 2 1 13 7 24 13 28 16 31 9 7 -16z
m65 14 c-3 -3 -12 -4 -19 -1 -8 3 -5 6 6 6 11 1 17 -2 13 -5z m-587 -14 c0 -5
-4 -10 -10 -10 -5 0 -10 5 -10 10 0 6 5 10 10 10 6 0 10 -4 10 -10z m280 -67
c0 -1 -9 -3 -20 -3 -15 0 -20 7 -20 27 l0 26 20 -23 c11 -13 20 -25 20 -27z
m110 -17 c0 -8 -4 -18 -10 -21 -5 -3 -10 -4 -10 -1 0 2 -3 11 -6 20 -4 11 -1
16 10 16 9 0 16 -6 16 -14z m254 -1 c-4 -8 -11 -15 -16 -15 -6 0 -5 6 2 15 7
8 14 15 16 15 2 0 1 -7 -2 -15z m-364 -10 c7 -8 19 -15 26 -15 16 0 19 -26 4
-35 -12 -7 -72 49 -63 59 10 10 20 7 33 -9z m300 -29 c0 -3 -4 -8 -10 -11 -5
-3 -10 -1 -10 4 0 6 5 11 10 11 6 0 10 -2 10 -4z m-233 -41 c8 -9 13 -22 10
-29 -3 -8 5 -19 19 -26 30 -16 32 -50 4 -50 -13 0 -20 -7 -20 -20 0 -17 -7
-20 -40 -20 l-40 0 0 40 c0 30 4 40 16 40 21 0 47 27 34 35 -10 6 -14 45 -4
45 3 0 12 -7 21 -15z m83 11 c0 -2 -7 -9 -15 -16 -12 -10 -15 -10 -15 4 0 9 7
16 15 16 8 0 15 -2 15 -4z m50 -61 c0 -8 -7 -15 -15 -15 -21 0 -19 -18 3 -23
15 -4 15 -5 0 -6 -26 -2 -32 18 -12 40 21 23 24 24 24 4z m95 -5 c3 -5 1 -10
-4 -10 -6 0 -11 5 -11 10 0 6 2 10 4 10 3 0 8 -4 11 -10z m170 -12 c6 -4 2 -8
-7 -8 -10 0 -18 7 -18 17 0 9 3 12 8 7 4 -5 12 -12 17 -16z m-85 -8 c0 -5 -2
-10 -4 -10 -3 0 -8 5 -11 10 -3 6 -1 10 4 10 6 0 11 -4 11 -10z m20 -57 c0 -7
-4 -13 -10 -13 -5 0 -10 12 -10 28 0 21 2 24 10 12 5 -8 10 -21 10 -27z m-264
2 c-3 -9 0 -15 9 -15 8 0 15 -5 15 -10 0 -6 8 -23 18 -38 l17 -26 6 39 6 40 2
-42 c1 -42 31 -109 66 -151 24 -28 23 -34 -10 -38 -22 -2 -25 1 -25 32 0 25
-4 34 -16 34 -11 0 -15 -6 -11 -20 3 -12 1 -17 -5 -14 -5 3 -9 20 -8 38 3 58
0 76 -14 76 -7 0 -19 7 -26 15 -16 20 -28 19 -32 -2 -2 -10 -5 8 -6 40 -1 35
3 57 9 57 6 0 9 -7 5 -15z m381 -11 c-3 -3 -12 -4 -19 -1 -8 3 -5 6 6 6 11 1
17 -2 13 -5z m-607 -24 c0 -11 -7 -20 -15 -20 -8 0 -15 9 -15 20 0 11 7 20 15
20 8 0 15 -9 15 -20z m50 0 c0 -11 -4 -20 -9 -20 -5 0 -7 9 -4 20 3 11 7 20 9
20 2 0 4 -9 4 -20z m297 -42 c-2 -13 -4 -3 -4 22 0 25 2 35 4 23 2 -13 2 -33
0 -45z m293 2 c0 -5 -9 -14 -21 -20 -19 -11 -20 -10 -9 9 11 22 30 29 30 11z
m-65 -56 c14 -14 24 -28 22 -31 -5 -4 -57 44 -57 52 0 10 10 4 35 -21z m115
-4 c0 -5 -7 -10 -16 -10 -8 0 -12 5 -9 10 3 6 10 10 16 10 5 0 9 -4 9 -10z
m-270 -30 c0 -5 -4 -10 -10 -10 -5 0 -10 5 -10 10 0 6 5 10 10 10 6 0 10 -4
10 -10z m112 -42 c-2 -24 -7 -46 -11 -50 -7 -8 -3 55 4 80 8 23 11 12 7 -30z
m-75 -60 c-2 -18 -4 -4 -4 32 0 36 2 50 4 33 2 -18 2 -48 0 -65z m263 71 c0
-11 -4 -17 -10 -14 -5 3 -10 13 -10 21 0 8 5 14 10 14 6 0 10 -9 10 -21z
m-283 -15 c-9 -9 -28 6 -21 18 4 6 10 6 17 -1 6 -6 8 -13 4 -17z m203 16 c13
-8 13 -10 -2 -10 -9 0 -20 5 -23 10 -8 13 5 13 25 0z m58 -51 c-3 -8 -7 -3
-11 10 -4 17 -3 21 5 13 5 -5 8 -16 6 -23z m-63 11 c-3 -5 -10 -10 -16 -10 -5
0 -9 5 -9 10 0 6 7 10 16 10 8 0 12 -4 9 -10z m-207 -18 c-24 -5 -23 -34 2
-50 27 -17 25 -32 -5 -32 -17 0 -25 6 -26 18 -1 16 -2 16 -6 0 -8 -33 -23 -18
-23 22 0 33 3 40 19 40 11 0 23 5 26 10 4 6 12 7 18 3 8 -5 7 -9 -5 -11z m80
-84 c-2 -18 -5 -19 -14 -7 -8 10 -9 21 -1 39 8 20 11 22 14 8 3 -10 3 -28 1
-40z m42 -37 c0 -22 -4 -43 -10 -46 -6 -4 -10 12 -10 39 0 25 5 46 10 46 6 0
10 -18 10 -39z m160 35 c0 -3 -4 -8 -10 -11 -5 -3 -10 -1 -10 4 0 6 5 11 10
11 6 0 10 -2 10 -4z m67 -28 c-3 -8 -6 -5 -6 6 -1 11 2 17 5 13 3 -3 4 -12 1
-19z m-250 -90 c9 -21 21 -38 27 -38 5 0 6 -3 3 -6 -4 -4 3 -19 13 -35 13 -18
17 -30 10 -34 -14 -9 -49 35 -50 61 0 14 -6 21 -17 20 -10 0 -19 9 -23 24 -4
15 -12 24 -22 22 -12 -2 -16 8 -16 45 l-1 48 30 -35 c16 -19 37 -52 46 -72z
m327 56 c4 -10 1 -14 -6 -12 -15 5 -23 28 -10 28 5 0 13 -7 16 -16z m-58 -8
c19 7 19 6 0 -8 -15 -12 -23 -13 -32 -4 -6 6 -10 15 -7 20 3 4 9 3 13 -3 3 -7
15 -9 26 -5z m-196 -16 c0 -5 -4 -10 -10 -10 -5 0 -10 5 -10 10 0 6 5 10 10
10 6 0 10 -4 10 -10z m60 0 c0 -5 -4 -10 -10 -10 -5 0 -10 5 -10 10 0 6 5 10
10 10 6 0 10 -4 10 -10z m215 -30 c3 -5 1 -10 -4 -10 -6 0 -11 5 -11 10 0 6 2
10 4 10 3 0 8 -4 11 -10z m-75 -19 c16 -31 12 -37 -10 -13 -22 23 -25 32 -10
32 5 0 14 -9 20 -19z m-170 -36 c-4 -5 -10 -17 -13 -25 -3 -8 -6 2 -6 23 -1
32 1 36 13 25 8 -7 11 -17 6 -23z m287 -7 c-3 -8 -6 -5 -6 6 -1 11 2 17 5 13
3 -3 4 -12 1 -19z m-216 -58 c5 0 9 -18 9 -40 0 -22 -4 -40 -10 -40 -5 0 -10
16 -10 36 0 25 -7 41 -22 53 -15 13 -19 24 -14 37 6 16 9 15 23 -14 8 -17 19
-32 24 -32z m159 12 c0 -15 2 -15 10 -2 8 12 10 10 10 -9 0 -19 -3 -21 -14
-12 -16 13 -29 54 -15 45 5 -3 9 -13 9 -22z m47 -4 c-3 -8 -6 -5 -6 6 -1 11 2
17 5 13 3 -3 4 -12 1 -19z m-122 2 c3 -5 1 -10 -4 -10 -6 0 -11 5 -11 10 0 6
2 10 4 10 3 0 8 -4 11 -10z m-418 -30 c-1 -11 -7 -20 -14 -20 -7 0 -13 -8 -13
-17 0 -14 -2 -15 -12 -4 -10 11 -10 14 0 18 6 3 12 13 12 24 0 10 6 19 14 19
9 0 14 -9 13 -20z m303 10 c0 -5 -4 -10 -10 -10 -5 0 -10 5 -10 10 0 6 5 10
10 10 6 0 10 -4 10 -10z m295 -10 c3 -5 1 -10 -4 -10 -6 0 -11 5 -11 10 0 6 2
10 4 10 3 0 8 -4 11 -10z m-310 -53 c8 -9 15 -22 15 -27 0 -11 21 -52 31 -60
4 -3 16 -22 28 -42 16 -30 18 -38 6 -38 -7 0 -17 5 -20 10 -4 6 -11 8 -16 5
-5 -4 -9 9 -9 27 0 22 -7 37 -20 46 -11 7 -20 19 -20 27 0 8 -4 15 -8 15 -9 0
-32 59 -32 81 1 10 5 8 16 -6 8 -11 21 -28 29 -38z m355 13 c0 -5 -2 -10 -4
-10 -3 0 -8 5 -11 10 -3 6 -1 10 4 10 6 0 11 -4 11 -10z m-95 -10 c3 -5 1 -10
-4 -10 -6 0 -11 5 -11 10 0 6 2 10 4 10 3 0 8 -4 11 -10z m72 -20 c3 -10 2
-11 -4 -4 -4 6 -15 14 -23 17 -11 5 -9 6 4 4 11 -1 21 -9 23 -17z m-250 -52
c-2 -13 -4 -3 -4 22 0 25 2 35 4 23 2 -13 2 -33 0 -45z m303 27 c0 -8 -4 -15
-10 -15 -5 0 -10 7 -10 15 0 8 5 15 10 15 6 0 10 -7 10 -15z m-85 -15 c3 -5 2
-10 -4 -10 -5 0 -13 5 -16 10 -3 6 -2 10 4 10 5 0 13 -4 16 -10z m62 -26 c-3
-3 -12 -4 -19 -1 -8 3 -5 6 6 6 11 1 17 -2 13 -5z m-347 -19 c0 -8 -4 -15 -10
-15 -5 0 -10 -12 -10 -26 0 -42 -34 -27 -38 16 -3 28 -1 33 9 23 17 -17 29
-16 29 2 0 8 5 15 10 15 6 0 10 -7 10 -15z m120 1 c0 -8 -4 -18 -10 -21 -5 -3
-10 3 -10 14 0 12 5 21 10 21 6 0 10 -6 10 -14z m49 -58 c1 -5 -6 -8 -14 -8
-15 0 -21 31 -8 44 7 6 20 -17 22 -36z m-329 -22 c0 -8 -4 -17 -9 -21 -12 -7
-24 12 -16 25 9 15 25 12 25 -4z m360 -26 c0 -22 -4 -40 -10 -40 -5 0 -10 18
-10 40 0 22 5 40 10 40 6 0 10 -18 10 -40z m240 30 c0 -5 -4 -10 -10 -10 -5 0
-10 5 -10 10 0 6 5 10 10 10 6 0 10 -4 10 -10z m-280 -10 c0 -5 -5 -10 -11
-10 -5 0 -7 5 -4 10 3 6 8 10 11 10 2 0 4 -4 4 -10z m-17 -71 c-3 -11 3 -20
16 -24 12 -3 21 -15 21 -26 0 -10 4 -19 9 -19 5 0 11 -8 15 -17 8 -26 58 -110
79 -133 9 -11 17 -23 17 -26 0 -3 9 -19 21 -35 17 -24 18 -29 5 -29 -9 0 -16
7 -16 15 0 8 -9 15 -20 15 -17 0 -19 5 -14 25 4 17 2 25 -6 25 -9 0 -11 -11
-6 -40 l6 -40 -45 0 -45 0 0 58 c1 49 2 55 14 40 16 -22 66 -24 66 -3 0 8 -9
15 -20 15 -15 0 -20 7 -20 25 0 18 -5 25 -20 25 -17 0 -20 7 -20 39 0 30 -4
40 -20 44 -12 3 -20 14 -20 27 0 14 -5 20 -17 18 -13 -2 -18 6 -20 35 l-3 38
23 -18 c14 -10 22 -25 20 -34z m345 1 c-15 -23 -28 -26 -28 -7 0 17 10 27 27
27 11 0 11 -4 1 -20z m41 -65 c1 -5 -4 -3 -9 5 -9 13 -11 13 -21 0 -9 -13 -10
-12 -5 3 3 10 6 26 6 35 1 12 5 10 15 -8 8 -14 14 -29 14 -35z m-88 15 c5 0 9
-5 9 -11 0 -8 -5 -8 -15 1 -8 7 -14 20 -14 29 1 13 2 13 6 -1 2 -10 9 -18 14
-18z m-465 -69 c-3 -32 -9 -47 -20 -49 -12 -3 -16 5 -16 32 0 25 -4 36 -15 36
-8 0 -15 6 -15 13 0 8 13 13 35 14 l34 1 -3 -47z m164 9 c0 -33 -3 -40 -20
-40 -17 0 -20 7 -20 40 0 33 3 40 20 40 17 0 20 -7 20 -40z m440 0 c0 -5 -7
-10 -16 -10 -8 0 -12 5 -9 10 3 6 10 10 16 10 5 0 9 -4 9 -10z m-163 -102 c-2
-13 -4 -3 -4 22 0 25 2 35 4 23 2 -13 2 -33 0 -45z m193 47 c0 -8 -7 -15 -15
-15 -8 0 -15 -5 -15 -12 0 -6 -2 -9 -5 -7 -2 3 -2 15 2 27 6 25 33 30 33 7z
m-85 -5 c3 -5 -1 -10 -9 -10 -9 0 -16 5 -16 10 0 6 4 10 9 10 6 0 13 -4 16
-10z m-505 -7 c0 -5 -5 -15 -10 -23 -7 -11 -12 -12 -21 -3 -6 6 -8 16 -5 22 8
12 36 15 36 4z m505 -33 c-3 -5 -10 -10 -16 -10 -5 0 -9 5 -9 10 0 6 7 10 16
10 8 0 12 -4 9 -10z m58 -17 c-7 -2 -21 -2 -30 0 -10 3 -4 5 12 5 17 0 24 -2
18 -5z m75 -5 c-6 -18 -25 -21 -25 -3 0 8 7 15 15 15 7 0 12 -5 10 -12z m-311
-20 c-3 -8 -6 -5 -6 6 -1 11 2 17 5 13 3 -3 4 -12 1 -19z m343 -32 c0 -7 -8
-16 -19 -19 -14 -3 -17 0 -14 14 6 22 33 26 33 5z m-285 -27 c-10 -15 -25 -10
-19 6 4 8 10 12 15 9 5 -3 7 -10 4 -15z m210 11 c3 -5 -1 -10 -10 -10 -9 0
-13 5 -10 10 3 6 8 10 10 10 2 0 7 -4 10 -10z m-515 -20 c0 -5 -12 -10 -26
-10 -14 0 -23 4 -19 10 3 6 15 10 26 10 10 0 19 -4 19 -10z m340 -30 c0 -22
-4 -40 -10 -40 -5 0 -10 18 -10 40 0 22 5 40 10 40 6 0 10 -18 10 -40z m165
20 c3 -5 -1 -10 -9 -10 -9 0 -16 5 -16 10 0 6 4 10 9 10 6 0 13 -4 16 -10z
m-225 -41 c0 -15 33 -48 42 -43 4 3 5 -2 2 -10 -3 -9 -12 -16 -20 -16 -8 0
-14 -7 -14 -15 0 -8 7 -15 15 -15 8 0 15 5 15 10 0 7 6 7 20 0 11 -6 20 -19
20 -30 0 -10 9 -22 20 -25 25 -8 26 -35 2 -35 -10 0 -27 15 -37 33 l-20 32 -3
-32 c-2 -25 -8 -33 -23 -33 -16 0 -19 -7 -19 -40 0 -33 -3 -40 -20 -40 -17 0
-20 7 -20 40 l0 40 -40 0 c-35 0 -40 -3 -40 -22 -1 -22 -1 -22 -12 -4 -8 15
-8 21 0 24 7 2 12 12 12 23 0 16 7 19 40 19 39 0 40 0 40 38 1 33 2 35 14 20
19 -26 26 -22 26 16 0 44 -9 66 -26 66 -8 0 -14 10 -14 22 0 20 1 21 20 3 11
-10 20 -22 20 -26z m331 -12 c-8 -8 -11 -5 -11 9 0 27 14 41 18 19 2 -9 -1
-22 -7 -28z m-411 13 c0 -13 -7 -20 -20 -20 -13 0 -20 7 -20 20 0 13 7 20 20
20 13 0 20 -7 20 -20z m360 0 c0 -5 -4 -10 -9 -10 -6 0 -13 5 -16 10 -3 6 1
10 9 10 9 0 16 -4 16 -10z m-570 -10 c0 -5 -5 -10 -11 -10 -5 0 -7 5 -4 10 3
6 8 10 11 10 2 0 4 -4 4 -10z m90 -30 c0 -12 -7 -20 -16 -20 -12 0 -15 -7 -11
-25 3 -16 0 -24 -7 -22 -14 5 -21 47 -7 47 6 0 11 9 11 20 0 11 7 20 15 20 8
0 15 -9 15 -20z m545 0 c3 -5 1 -10 -4 -10 -6 0 -11 5 -11 10 0 6 2 10 4 10 3
0 8 -4 11 -10z m-245 -15 c0 -8 -2 -15 -4 -15 -2 0 -6 7 -10 15 -3 8 -1 15 4
15 6 0 10 -7 10 -15z m207 -17 c-3 -8 -6 -5 -6 6 -1 11 2 17 5 13 3 -3 4 -12
1 -19z m33 -38 c0 -5 -4 -10 -10 -10 -5 0 -10 5 -10 10 0 6 5 10 10 10 6 0 10
-4 10 -10z m33 -60 c3 -11 1 -23 -4 -26 -5 -3 -9 6 -9 20 0 31 6 34 13 6z
m-306 -41 c-21 -12 -22 -29 -2 -29 8 0 15 -4 15 -10 0 -5 9 -10 20 -10 17 0
20 -7 20 -40 0 -34 3 -40 21 -40 19 0 21 4 16 33 -3 17 -3 26 0 20 2 -7 13
-13 24 -13 10 0 19 -6 19 -14 0 -8 6 -17 13 -20 8 -4 7 -5 -3 -5 -39 3 -50 -2
-50 -21 0 -13 7 -20 20 -20 17 0 20 -7 20 -40 0 -49 22 -54 40 -10 13 32 18
30 58 -27 27 -38 27 -43 2 -43 -16 0 -20 7 -20 30 0 39 -36 43 -46 5 -7 -27
-34 -35 -34 -10 0 8 -9 15 -20 15 -13 0 -20 -7 -20 -20 0 -13 -7 -20 -20 -20
-13 0 -20 7 -20 20 0 13 7 20 20 20 17 0 20 7 20 40 0 33 -3 40 -20 40 -13 0
-20 7 -20 20 0 13 -7 20 -20 20 -17 0 -20 7 -20 40 0 33 -3 40 -20 40 -27 0
-29 57 -2 62 24 6 30 -2 9 -13z m73 -14 c0 -7 6 -15 13 -18 6 -2 9 -8 5 -12
-11 -12 -38 15 -38 37 0 10 5 16 10 13 6 -3 10 -12 10 -20z m300 -25 c0 -5 -5
-10 -11 -10 -5 0 -7 5 -4 10 3 6 8 10 11 10 2 0 4 -4 4 -10z m110 -47 c0 -13
-3 -13 -15 -3 -8 7 -15 16 -15 21 0 5 7 6 15 3 8 -4 15 -13 15 -21z m-90 -14
c0 -18 -18 -9 -23 12 -4 16 -3 18 9 8 8 -6 14 -15 14 -20z m-505 -39 c3 -5 1
-10 -4 -10 -6 0 -11 5 -11 10 0 6 2 10 4 10 3 0 8 -4 11 -10z m119 -6 c11 -28
6 -64 -8 -64 -16 0 -26 21 -26 56 0 27 24 33 34 8z m416 6 c0 -5 -4 -10 -9
-10 -6 0 -13 5 -16 10 -3 6 1 10 9 10 9 0 16 -4 16 -10z m100 6 c0 -11 -19
-15 -25 -6 -3 5 1 10 9 10 9 0 16 -2 16 -4z m-350 -31 c14 -16 10 -18 -14 -9
-9 3 -16 10 -16 15 0 14 16 11 30 -6z m288 -28 c15 -41 15 -47 2 -47 -5 0 -10
11 -10 24 0 14 -4 28 -10 31 -12 7 -13 25 -2 25 4 0 13 -15 20 -33z m-138 -29
c0 -5 -7 -3 -15 6 -8 8 -15 18 -15 22 0 3 7 1 15 -6 8 -7 15 -17 15 -22z m240
11 c0 -18 -2 -19 -15 -5 -8 8 -15 17 -15 20 0 3 7 6 15 6 9 0 15 -9 15 -21z
m-610 -13 c0 -16 -18 -31 -27 -22 -8 8 5 36 17 36 5 0 10 -6 10 -14z m640 -36
c0 -5 -4 -10 -10 -10 -5 0 -10 5 -10 10 0 6 5 10 10 10 6 0 10 -4 10 -10z
m-293 -22 c-3 -8 -6 -5 -6 6 -1 11 2 17 5 13 3 -3 4 -12 1 -19z m253 -2 c0 -2
-7 -7 -16 -10 -8 -3 -12 -2 -9 4 6 10 25 14 25 6z m-340 -63 c0 -16 -6 -23
-20 -23 -17 0 -20 7 -20 42 0 40 0 41 20 23 11 -10 20 -29 20 -42z m155 47
c-3 -5 -13 -10 -21 -10 -8 0 -14 5 -14 10 0 6 9 10 21 10 11 0 17 -4 14 -10z
m-90 -30 c3 -5 -1 -10 -9 -10 -9 0 -16 5 -16 10 0 6 4 10 9 10 6 0 13 -4 16
-10z m365 -10 c0 -10 8 -24 18 -29 9 -6 13 -10 7 -11 -17 0 -32 14 -39 38 -5
13 -3 22 3 22 6 0 11 -9 11 -20z m-280 0 c0 -5 -4 -10 -10 -10 -5 0 -10 5 -10
10 0 6 5 10 10 10 6 0 10 -4 10 -10z m205 -20 c3 -5 1 -10 -4 -10 -6 0 -11 5
-11 10 0 6 2 10 4 10 3 0 8 -4 11 -10z m-188 -67 c-2 -16 -4 -5 -4 22 0 28 2
40 4 28 2 -13 2 -35 0 -50z m-210 14 c1 -30 -2 -37 -15 -35 -12 2 -17 15 -19
41 -1 30 2 37 15 35 12 -2 17 -15 19 -41z m91 -24 c16 -11 16 -12 -1 -13 -24
0 -47 23 -47 48 0 31 24 33 28 3 2 -14 11 -31 20 -38z m72 29 c0 -9 -6 -12
-16 -8 -9 3 -18 6 -20 6 -2 0 -4 9 -4 20 0 18 2 19 20 8 11 -7 20 -19 20 -26z
m97 -24 c-2 -13 -4 -3 -4 22 0 25 2 35 4 23 2 -13 2 -33 0 -45z m250 36 c-3
-3 -12 -4 -19 -1 -8 3 -5 6 6 6 11 1 17 -2 13 -5z m20 -34 c3 -11 9 -20 14
-20 5 0 9 -4 9 -10 0 -5 -7 -10 -15 -10 -8 0 -15 9 -15 20 0 11 -4 20 -10 20
-5 0 -10 5 -10 10 0 18 22 10 27 -10z m-344 -20 c22 -26 21 -30 -3 -30 -11 0
-20 4 -20 9 0 5 -3 16 -6 25 -9 22 8 20 29 -4z m272 1 c3 -5 1 -12 -5 -16 -5
-3 -10 1 -10 9 0 18 6 21 15 7z m-495 -27 c0 -14 -4 -23 -10 -19 -5 3 -10 15
-10 26 0 10 5 19 10 19 6 0 10 -12 10 -26z m185 -14 c3 -5 -1 -10 -9 -10 -9 0
-16 5 -16 10 0 6 4 10 9 10 6 0 13 -4 16 -10z m75 -26 c0 -8 4 -14 8 -14 5 0
15 -12 22 -27 8 -16 21 -36 29 -46 8 -9 11 -20 8 -24 -4 -3 -7 -1 -7 5 0 7 -8
12 -17 12 -11 1 -26 19 -40 49 -25 51 -29 76 -13 66 6 -3 10 -13 10 -21z m-60
-10 c0 -2 -9 -4 -20 -4 -11 0 -20 4 -20 9 0 5 9 7 20 4 11 -3 20 -7 20 -9z
m440 -4 c0 -5 -7 -7 -15 -4 -8 4 -15 8 -15 10 0 2 7 4 15 4 8 0 15 -4 15 -10z
m-313 -22 c-3 -8 -6 -5 -6 6 -1 11 2 17 5 13 3 -3 4 -12 1 -19z m339 -55 c-4
-4 -11 -1 -16 7 -16 25 -11 35 7 17 9 -9 13 -20 9 -24z m-281 8 c3 -5 1 -12
-5 -16 -5 -3 -10 1 -10 9 0 18 6 21 15 7z m310 -31 c-3 -5 1 -10 9 -10 9 0 16
-4 16 -10 0 -5 -6 -10 -14 -10 -8 0 -18 5 -21 10 -3 6 -16 10 -28 11 -20 1
-20 2 3 9 35 11 42 11 35 0z m-635 -10 c8 -5 11 -12 8 -16 -10 -9 -38 3 -38
16 0 12 10 13 30 0z m306 -35 c15 -36 29 -45 37 -22 2 7 8 8 13 3 5 -5 4 -11
-3 -13 -7 -3 -13 -11 -13 -19 0 -25 -39 -16 -46 11 -3 14 -12 25 -20 25 -20 0
-18 -50 4 -66 15 -12 13 -13 -20 -14 -38 0 -38 0 -38 40 0 33 -3 40 -20 40
-13 0 -20 7 -20 20 0 13 7 20 20 20 13 0 20 -7 20 -20 0 -30 38 -26 46 5 9 35
22 31 40 -10z m351 -1 c-3 -3 -12 -4 -19 -1 -8 3 -5 6 6 6 11 1 17 -2 13 -5z
m33 -34 c0 -11 -4 -20 -10 -20 -5 0 -10 9 -10 20 0 11 5 20 10 20 6 0 10 -9
10 -20z m-293 -37 c-4 -17 -4 -17 -12 0 -4 9 -4 25 0 35 8 16 8 16 12 0 3 -10
3 -26 0 -35z m-26 -38 c7 -19 21 -37 31 -41 24 -7 23 -24 -2 -24 -19 0 -51 45
-57 83 -5 31 15 18 28 -18z m406 -71 c-9 -9 -28 6 -21 18 4 6 10 6 17 -1 6 -6
8 -13 4 -17z m-634 -16 c6 -22 5 -22 -8 -4 -7 10 -18 15 -24 11 -6 -3 -11 -1
-11 4 0 21 38 11 43 -11z m337 12 c0 -5 -2 -10 -4 -10 -3 0 -8 5 -11 10 -3 6
-1 10 4 10 6 0 11 -4 11 -10z m-7 -91 c-4 -13 0 -19 11 -19 9 0 16 -7 16 -15
0 -21 -4 -19 -42 18 -24 22 -34 42 -36 67 l-2 35 29 -33 c18 -21 27 -41 24
-53z m340 41 c26 -31 20 -42 -8 -16 -14 13 -25 26 -25 30 0 12 16 6 33 -14z
m-633 -50 c0 -5 -4 -10 -10 -10 -5 0 -10 5 -10 10 0 6 5 10 10 10 6 0 10 -4
10 -10z m361 -98 c13 -33 7 -36 -19 -12 -27 25 -32 71 -6 49 9 -7 20 -24 25
-37z m249 38 c0 -5 -4 -10 -10 -10 -5 0 -10 5 -10 10 0 6 5 10 10 10 6 0 10
-4 10 -10z m139 -86 c-6 -8 -15 -14 -20 -14 -14 0 -11 28 4 33 20 7 29 -4 16
-19z m-292 -26 c-3 -8 -6 -5 -6 6 -1 11 2 17 5 13 3 -3 4 -12 1 -19z m-32 -8
c8 0 17 -15 21 -35 3 -20 12 -35 20 -35 8 0 14 -9 14 -20 0 -11 -7 -20 -15
-20 -8 0 -15 9 -15 20 0 11 -6 20 -14 20 -7 0 -16 10 -19 23 -3 12 -8 33 -11
47 -4 14 -4 19 0 13 3 -7 12 -13 19 -13z m373 -13 c2 -10 -3 -17 -12 -17 -18
0 -29 16 -21 31 9 14 29 6 33 -14z m-71 -59 c-3 -8 -6 -5 -6 6 -1 11 2 17 5
13 3 -3 4 -12 1 -19z m103 -2 c0 -16 -28 -42 -36 -33 -7 6 18 47 28 47 5 0 8
-6 8 -14z m-64 -54 c-4 -3 -11 0 -16 8 -15 24 -11 33 6 15 9 -9 13 -19 10 -23z
m101 12 c-3 -3 -12 -4 -19 -1 -8 3 -5 6 6 6 11 1 17 -2 13 -5z m-363 -10 c9
-3 16 -17 16 -30 0 -13 6 -24 13 -25 9 0 9 -2 -1 -6 -13 -5 -51 34 -52 55 0
14 2 14 24 6z m301 -54 c3 -5 1 -10 -4 -10 -6 0 -11 5 -11 10 0 6 2 10 4 10 3
0 8 -4 11 -10z m110 -20 c3 -5 -3 -10 -15 -10 -12 0 -18 5 -15 10 3 6 10 10
15 10 5 0 12 -4 15 -10z m-325 -74 c0 -9 5 -16 10 -16 6 0 10 -7 10 -15 0 -9
7 -18 15 -21 22 -9 18 -24 -5 -24 -17 0 -20 -7 -20 -40 0 -33 -3 -40 -20 -40
-17 0 -20 7 -20 40 0 33 3 40 20 40 11 0 20 7 20 15 0 8 -4 15 -10 15 -5 0
-10 11 -10 25 0 14 -4 25 -10 25 -5 0 -10 9 -10 21 0 18 2 19 15 5 8 -8 15
-22 15 -30z m366 31 c4 -4 -2 -7 -14 -7 -12 0 -22 4 -22 9 0 10 26 9 36 -2z
m4 -27 c0 -5 -4 -10 -10 -10 -5 0 -10 5 -10 10 0 6 5 10 10 10 6 0 10 -4 10
-10z m-45 -79 c-9 -9 -35 22 -35 43 0 19 2 18 20 -9 10 -16 17 -31 15 -34z
m-598 27 c-3 -8 -6 -5 -6 6 -1 11 2 17 5 13 3 -3 4 -12 1 -19z m673 -9 c0 -10
-4 -19 -10 -19 -5 0 -10 4 -10 9 0 5 -3 17 -6 25 -5 12 -2 15 10 10 9 -3 16
-15 16 -25z m-300 -91 c0 -4 -9 -8 -19 -8 -19 0 -31 18 -31 48 0 12 5 11 25
-8 14 -13 25 -27 25 -32z m345 33 c3 -6 -4 -15 -15 -21 -16 -8 -20 -8 -20 3 0
25 23 36 35 18z m-245 -53 c0 -17 -20 -47 -20 -31 0 6 -3 18 -6 27 -4 11 -1
16 10 16 9 0 16 -6 16 -12z m283 -3 c-6 -17 -25 -15 -31 3 -2 7 5 12 17 12 14
0 19 -5 14 -15z m-88 -5 c3 -5 -1 -10 -9 -10 -9 0 -16 5 -16 10 0 6 4 10 9 10
6 0 13 -4 16 -10z m-225 -80 c3 -3 9 -13 13 -22 10 -28 25 -21 30 15 3 28 4
26 5 -10 2 -40 0 -43 -23 -43 -16 0 -25 6 -25 15 0 8 -4 15 -10 15 -5 0 -10
11 -10 25 0 14 -4 25 -10 25 -5 0 -10 10 -10 23 1 20 2 19 17 -8 9 -16 19 -32
23 -35z m230 46 c0 -11 -19 -15 -25 -6 -3 5 1 10 9 10 9 0 16 -2 16 -4z m43
-23 c-7 -2 -19 -2 -25 0 -7 3 -2 5 12 5 14 0 19 -2 13 -5z m74 1 c-3 -3 -12
-4 -19 -1 -8 3 -5 6 6 6 11 1 17 -2 13 -5z m-627 -34 c0 -16 -5 -30 -11 -30
-6 0 -9 6 -6 13 2 6 0 20 -5 30 -6 12 -5 17 7 17 10 0 15 -10 15 -30z m380
-21 c0 -27 -3 -48 -8 -45 -7 4 -4 96 4 96 2 0 4 -23 4 -51z m291 -4 c-1 -15
-24 -12 -29 3 -3 9 2 13 12 10 10 -1 17 -7 17 -13z m-76 -15 c3 -5 -1 -10 -9
-10 -9 0 -16 5 -16 10 0 6 4 10 9 10 6 0 13 -4 16 -10z m-227 -77 c22 -24 31
-31 27 -18 -4 14 -3 17 4 10 13 -13 3 -55 -14 -55 -7 0 -18 -7 -25 -15 -18
-22 -40 -18 -40 6 0 17 3 19 14 10 9 -7 17 -8 20 -2 8 12 -4 44 -21 54 -14 8
-18 47 -5 47 4 0 22 -17 40 -37z m252 16 c0 -5 -4 -9 -10 -9 -5 0 -10 7 -10
16 0 8 5 12 10 9 6 -3 10 -10 10 -16z m40 -33 c0 -3 -4 -8 -10 -11 -5 -3 -10
-1 -10 4 0 6 5 11 10 11 6 0 10 -2 10 -4z m90 -12 c0 -17 -22 -14 -28 4 -2 7
3 12 12 12 9 0 16 -7 16 -16z m-290 -26 c0 -16 -3 -19 -11 -11 -6 6 -8 16 -5
22 11 17 16 13 16 -11z m208 -16 c2 -7 -2 -10 -12 -6 -9 3 -16 11 -16 16 0 13
23 5 28 -10z m-242 -22 c8 0 14 -10 14 -25 0 -18 5 -25 19 -25 10 0 19 -6 18
-12 -1 -39 5 -58 17 -58 14 0 37 -33 52 -72 3 -10 10 -18 15 -18 5 0 9 -12 8
-27 0 -16 -3 -22 -6 -15 -2 6 -18 12 -35 12 -26 0 -29 2 -18 15 11 13 11 20 0
40 -7 14 -17 25 -22 25 -4 0 -8 7 -8 17 0 15 -1 15 -18 0 -28 -26 -62 -22 -62
7 0 13 7 29 15 36 8 7 15 18 15 25 0 7 -7 18 -15 25 -8 7 -15 27 -14 44 0 17
3 25 6 19 2 -7 11 -13 19 -13z m304 10 c0 -5 -5 -10 -11 -10 -5 0 -7 5 -4 10
3 6 8 10 11 10 2 0 4 -4 4 -10z m-590 -25 c0 -8 -4 -15 -10 -15 -5 0 -10 7
-10 15 0 8 5 15 10 15 6 0 10 -7 10 -15z m360 8 c0 -5 -5 -15 -10 -23 -8 -12
-10 -11 -10 8 0 12 5 22 10 22 6 0 10 -3 10 -7z m287 1 c-3 -3 -12 -4 -19 -1
-8 3 -5 6 6 6 11 1 17 -2 13 -5z m6 -21 c-7 -2 -19 -2 -25 0 -7 3 -2 5 12 5
14 0 19 -2 13 -5z m-243 -40 c0 -7 -7 -13 -16 -13 -11 0 -14 5 -10 16 3 9 6
21 6 27 0 16 20 -14 20 -30z m197 31 c-3 -3 -12 -4 -19 -1 -8 3 -5 6 6 6 11 1
17 -2 13 -5z m33 -34 c0 -5 -4 -10 -9 -10 -6 0 -13 5 -16 10 -3 6 1 10 9 10 9
0 16 -4 16 -10z m45 0 c-3 -5 -1 -10 4 -10 6 0 11 -4 11 -10 0 -20 -36 -10
-37 10 -1 12 4 20 13 20 8 0 12 -4 9 -10z m-245 -50 c0 -22 -4 -40 -10 -40 -5
0 -10 18 -10 40 0 22 5 40 10 40 6 0 10 -18 10 -40z m-340 -16 c0 -10 -7 -14
-22 -12 -32 5 -35 28 -4 28 17 0 26 -5 26 -16z m640 6 c0 -5 -9 -10 -21 -10
-11 0 -17 5 -14 10 3 6 13 10 21 10 8 0 14 -4 14 -10z m-80 -20 c0 -5 -7 -10
-16 -10 -8 0 -12 5 -9 10 3 6 10 10 16 10 5 0 9 -4 9 -10z m-170 -14 c0 -3 -4
-8 -10 -11 -5 -3 -10 -1 -10 4 0 6 5 11 10 11 6 0 10 -2 10 -4z m-390 -26 c0
-5 -4 -10 -10 -10 -5 0 -10 5 -10 10 0 6 5 10 10 10 6 0 10 -4 10 -10z m670
-6 c0 -15 -23 -44 -35 -44 -3 0 -1 9 5 20 6 11 8 20 5 20 -4 0 -3 5 0 10 10
15 25 12 25 -6z m-85 -14 c3 -5 -1 -10 -9 -10 -9 0 -16 5 -16 10 0 6 4 10 9
10 6 0 13 -4 16 -10z m-151 -45 c-4 -8 -8 -15 -10 -15 -2 0 -4 7 -4 15 0 8 4
15 10 15 5 0 7 -7 4 -15z m176 5 c0 -5 -4 -10 -10 -10 -5 0 -10 5 -10 10 0 6
5 10 10 10 6 0 10 -4 10 -10z m110 -5 c0 -19 -11 -19 -36 0 -18 14 -18 14 9
15 17 0 27 -5 27 -15z m-360 -28 c0 -7 9 -20 20 -30 24 -20 26 -47 5 -47 -9 0
-15 -9 -15 -24 0 -13 7 -29 15 -36 23 -19 19 -60 -5 -60 -18 0 -20 7 -20 55 0
48 -2 55 -20 55 -11 0 -20 5 -20 10 0 6 9 10 20 10 27 0 26 28 -2 57 l-21 23
21 0 c12 0 22 -6 22 -13z m330 3 c0 -13 -20 -13 -40 0 -12 8 -9 10 13 10 15 0
27 -4 27 -10z m-228 -54 c-7 -13 -21 16 -14 32 4 13 7 12 12 -4 4 -10 5 -23 2
-28z m216 22 c25 5 26 4 10 -11 -24 -24 -48 -21 -47 6 0 12 3 17 5 11 3 -6 17
-9 32 -6z m57 -27 c3 -5 1 -12 -5 -16 -5 -3 -10 1 -10 9 0 18 6 21 15 7z m55
-32 c0 -5 -4 -9 -10 -9 -5 0 -10 7 -10 16 0 8 5 12 10 9 6 -3 10 -10 10 -16z
m-352 -26 c2 -13 -4 -22 -17 -26 -16 -4 -19 0 -16 22 4 34 3 33 18 29 6 -3 13
-14 15 -25z m-103 7 c3 -5 1 -10 -4 -10 -6 0 -11 5 -11 10 0 6 2 10 4 10 3 0
8 -4 11 -10z m165 -14 c0 -3 -4 -8 -10 -11 -5 -3 -10 -1 -10 4 0 6 5 11 10 11
6 0 10 -2 10 -4z m49 -22 c6 -15 10 -28 8 -31 -7 -7 -37 28 -37 43 0 23 16 16
29 -12z m248 10 c-3 -3 -12 -4 -19 -1 -8 3 -5 6 6 6 11 1 17 -2 13 -5z m-60
-11 c-4 -3 -2 -12 4 -20 9 -10 8 -13 -5 -13 -9 0 -16 8 -16 20 0 11 5 20 12
20 6 0 8 -3 5 -7z m-260 -18 c3 -9 3 -18 1 -21 -9 -9 -38 8 -38 22 0 19 29 18
37 -1z m353 -15 c0 -22 -24 -27 -36 -8 -4 7 -3 8 5 4 6 -4 14 0 17 8 8 22 14
20 14 -4z m27 -32 c-3 -8 -6 -5 -6 6 -1 11 2 17 5 13 3 -3 4 -12 1 -19z m-337
-16 c0 -15 5 -33 12 -40 9 -9 0 -12 -42 -11 -30 1 -45 4 -32 6 16 3 22 11 22
32 0 31 7 41 27 41 8 0 13 -11 13 -28z m44 -6 c-3 -15 -8 -25 -11 -23 -2 3 -1
17 3 31 3 15 8 25 11 23 2 -3 1 -17 -3 -31z m23 -13 c-3 -10 -5 -2 -5 17 0 19
2 27 5 18 2 -10 2 -26 0 -35z m30 25 c-3 -8 -6 -5 -6 6 -1 11 2 17 5 13 3 -3
4 -12 1 -19z m-184 -15 c-7 -2 -19 -2 -25 0 -7 3 -2 5 12 5 14 0 19 -2 13 -5z
m204 -40 c-3 -10 -5 -2 -5 17 0 19 2 27 5 18 2 -10 2 -26 0 -35z m243 38 c0
-5 -7 -11 -15 -15 -15 -5 -20 5 -8 17 9 10 23 9 23 -2z m-263 -33 c-3 -7 -5
-2 -5 12 0 14 2 19 5 13 2 -7 2 -19 0 -25z m-297 -36 c0 -27 -15 -52 -32 -52
-13 0 -9 68 5 73 23 10 27 7 27 -21z m400 18 c0 -5 -7 -10 -15 -10 -8 0 -15 5
-15 10 0 6 7 10 15 10 8 0 15 -4 15 -10z m110 0 c0 -5 -7 -10 -15 -10 -8 0
-15 5 -15 10 0 6 7 10 15 10 8 0 15 -4 15 -10z m80 -6 c0 -9 -5 -14 -12 -12
-18 6 -21 28 -4 28 9 0 16 -7 16 -16z m-364 -8 c18 -19 18 -26 -1 -26 -8 0
-15 -6 -16 -12 0 -7 -4 -4 -8 7 -8 19 -4 45 6 45 2 0 11 -6 19 -14z m118 -15
c3 -5 -1 -14 -9 -21 -13 -10 -15 -9 -15 9 0 21 14 28 24 12z m-169 -31 c3 -5
1 -10 -4 -10 -6 0 -11 5 -11 10 0 6 2 10 4 10 3 0 8 -4 11 -10z m392 -12 c-3
-8 -6 -5 -6 6 -1 11 2 17 5 13 3 -3 4 -12 1 -19z m55 -24 c-31 -24 -42 -16
-24 16 15 27 18 28 29 13 10 -13 9 -19 -5 -29z m-275 20 c-3 -3 -12 -4 -19 -1
-8 3 -5 6 6 6 11 1 17 -2 13 -5z m203 -10 c0 -9 -5 -14 -12 -12 -18 6 -21 28
-4 28 9 0 16 -7 16 -16z m120 -39 c0 -9 -6 -12 -15 -9 -8 4 -15 10 -15 15 0 5
7 9 15 9 8 0 15 -7 15 -15z m-80 -5 c0 -5 -7 -10 -15 -10 -8 0 -15 5 -15 10 0
6 7 10 15 10 8 0 15 -4 15 -10z"/>
<path d="M18855 12744 c-51 -17 -63 -30 -44 -49 14 -14 21 -13 67 7 28 13 52
28 52 34 0 19 -34 22 -75 8z"/>
<path d="M19110 12737 c0 -19 94 -56 114 -45 24 13 20 26 -14 43 -36 19 -100
20 -100 2z"/>
<path d="M19648 12454 c-49 -54 -211 -167 -313 -217 -253 -126 -413 -139 -594
-48 -76 39 -202 140 -247 200 -41 53 -60 59 -57 16 4 -58 214 -228 340 -275
127 -47 257 -51 383 -10 90 30 272 118 356 173 86 57 198 160 192 178 -8 25
-27 20 -60 -17z"/>
<path d="M800 4136 c0 -19 4 -23 20 -19 11 3 20 14 20 24 0 12 -7 19 -20 19
-14 0 -20 -7 -20 -24z"/>
<path d="M0 4876 c0 -9 5 -16 10 -16 6 0 10 4 10 9 0 6 -4 13 -10 16 -5 3 -10
-1 -10 -9z"/>
<path d="M490 4090 c0 -5 5 -10 11 -10 5 0 7 5 4 10 -3 6 -8 10 -11 10 -2 0
-4 -4 -4 -10z"/>
<path d="M1490 2071 c0 -5 7 -11 15 -15 9 -3 15 0 15 9 0 8 -7 15 -15 15 -8 0
-15 -4 -15 -9z"/>
<path d="M1925 1910 c3 -5 8 -10 11 -10 2 0 4 5 4 10 0 6 -5 10 -11 10 -5 0
-7 -4 -4 -10z"/>
<path d="M2418 1215 c2 -14 8 -25 13 -25 10 0 11 12 3 34 -10 25 -22 19 -16
-9z"/>
<path d="M2522 1039 c2 -7 10 -15 17 -17 8 -3 12 1 9 9 -2 7 -10 15 -17 17 -8
3 -12 -1 -9 -9z"/>
</g>
</svg>
